HIERARCHY
ROOT root
{
	OFFSET	0	13.1	24.9
	CHANNELS 6  Xposition Yposition Zposition Xrotation Yrotation Zrotation
	JOINT spine_1
	{
		OFFSET	0	9.99999	0
		CHANNELS 3  Xrotation Yrotation Zrotation
		JOINT spine_2
		{
			OFFSET	0	112	-10
			CHANNELS 3  Xrotation Yrotation Zrotation
			JOINT spine_3
			{
				OFFSET	0	206.5	19.3
				CHANNELS 3  Xrotation Yrotation Zrotation
				JOINT spine_4
				{
					OFFSET	0	110.4	14.6
					CHANNELS 3  Xrotation Yrotation Zrotation
					JOINT neck_1
					{
						OFFSET	0	71.8	-50.3
						CHANNELS 3  Xrotation Yrotation Zrotation
						JOINT neck_2
						{
							OFFSET	0	86.2	-25.8
							CHANNELS 3  Xrotation Yrotation Zrotation
							JOINT head_ee
							{
								OFFSET	0	179.8	-8.7
								CHANNELS 3  Xrotation Yrotation Zrotation
								End Site
								{
									OFFSET	1	0	0
								}
							}
						}
					}
					JOINT left_clavicle
					{
						OFFSET	-43.2	22.4	-70.8
						CHANNELS 3  Xrotation Yrotation Zrotation
						JOINT left_shoulder
						{
							OFFSET	-93.9	-5.79999	48.7
							CHANNELS 3  Xrotation Yrotation Zrotation
							JOINT left_elbow
							{
								OFFSET	-291.4	-30.8	15.2
								CHANNELS 3  Xrotation Yrotation Zrotation
								JOINT left_lowarm_twist
								{
									OFFSET	-110.7	-3.89999	13.6
									CHANNELS 3  Xrotation Yrotation Zrotation
									JOINT left_hand
									{
										OFFSET	-110.7	-3.89999	13.6
										CHANNELS 3  Xrotation Yrotation Zrotation
										JOINT left_ee
										{
											OFFSET	-80.8	-5.10001	12.1
											CHANNELS 3  Xrotation Yrotation Zrotation
											End Site
											{
												OFFSET	1	0	0
											}
										}
									}
								}
							}
						}
					}
					JOINT right_clavicle
					{
						OFFSET	43.2	22.4	-70.8
						CHANNELS 3  Xrotation Yrotation Zrotation
						JOINT right_shoulder
						{
							OFFSET	93.9	-5.79999	48.7
							CHANNELS 3  Xrotation Yrotation Zrotation
							JOINT right_elbow
							{
								OFFSET	291.4	-30.8	15.2
								CHANNELS 3  Xrotation Yrotation Zrotation
								JOINT right_lowarm_twist
								{
									OFFSET	110.7	-3.89999	13.6
									CHANNELS 3  Xrotation Yrotation Zrotation
									JOINT right_hand
									{
										OFFSET	110.7	-3.89999	13.6
										CHANNELS 3  Xrotation Yrotation Zrotation
										JOINT right_ee
										{
											OFFSET	80.8	-5.10001	12.1
											CHANNELS 3  Xrotation Yrotation Zrotation
											End Site
											{
												OFFSET	1	0	0
											}
										}
									}
								}
							}
						}
					}
				}
			}
		}
	}
	JOINT left_hip
	{
		OFFSET	-82.8	-127.5	0.300001
		CHANNELS 3  Xrotation Yrotation Zrotation
		JOINT left_knee
		{
			OFFSET	-28.2	-396.7	2.2
			CHANNELS 3  Xrotation Yrotation Zrotation
			JOINT left_ankle
			{
				OFFSET	-11.7	-411.3	35.4
				CHANNELS 3  Xrotation Yrotation Zrotation
				JOINT left_toes
				{
					OFFSET	0	-60	-88.6
					CHANNELS 3  Xrotation Yrotation Zrotation
					JOINT left_foot_ee
					{
						OFFSET	-22.5	-16.5	-42.2
						CHANNELS 3  Xrotation Yrotation Zrotation
						End Site
						{
							OFFSET	1	0	0
						}
					}
				}
			}
		}
	}
	JOINT right_hip
	{
		OFFSET	82.8	-127.5	0.300001
		CHANNELS 3  Xrotation Yrotation Zrotation
		JOINT right_knee
		{
			OFFSET	28.2	-396.7	2.2
			CHANNELS 3  Xrotation Yrotation Zrotation
			JOINT right_ankle
			{
				OFFSET	11.7	-411.3	35.4
				CHANNELS 3  Xrotation Yrotation Zrotation
				JOINT right_toes
				{
					OFFSET	0	-60	-88.6
					CHANNELS 3  Xrotation Yrotation Zrotation
					JOINT right_foot_ee
					{
						OFFSET	22.5	-16.5	-42.2
						CHANNELS 3  Xrotation Yrotation Zrotation
						End Site
						{
							OFFSET	1	0	0
						}
					}
				}
			}
		}
	}
}
MOTION
Frames: 9
Frame Time: 0.02
1676.13 717.982 -1505.1 3.943 47.9602 -4.71869 1.25974 0.0908403 2.68644 1.26375 -0.0802263 2.68678 1.26042 -0.586005 2.62337 1.25085 -0.164495 2.68294 0.112264 15.984 -8.83942 1.67387 35.6138 -8.35063 -0.0 0.0 -0.0 -7.24213 24.165 -7.08381 -15.4383 -10.0434 74.7379 0.6739 -18.4606 0.109515 1.15158 0.0391488 -0.141865 1.56931 13.2447 15.4974 -0.0 0.0 -0.0 13.1455 20.6993 -26.5328 -3.28682 32.6624 -62.3944 1.0825 28.2011 -0.271923 45.115 0.641699 5.58062 0.7677 -6.18456 -7.61982 0.0 0.0 0.0 21.0537 12.5613 -9.73018 -59.7165 -2.16945 8.49414 22.5831 18.7747 -3.1122 -27.6464 0.0 0.0 -0.0 0.0 -0.0 4.45704 -2.79154 -4.14447 -15.5509 -0.322088 -2.35742 32.48 6.11477 4.23902 38.8593 -0.0 -0.0 0.0 0.0 0.0 
1666.08 716.854 -1506.63 3.07042 48.9928 -4.12936 1.4253 0.189359 2.60353 1.42907 0.0233634 2.6103 1.43047 -0.462089 2.5692 1.42126 -0.0506759 2.60991 1.59844 16.4713 -9.43835 3.58938 36.8022 -9.59811 -0.0 0.0 -0.0 -7.78056 24.0464 -7.88217 -15.5141 -10.6581 75.9398 0.705433 -19.2621 0.11971 1.77229 0.0590643 -0.218645 1.87862 13.1111 17.4903 -0.0 0.0 -0.0 13.1934 20.8341 -26.634 -3.02253 32.819 -60.8764 1.11861 28.9911 -0.289208 45.0922 0.640275 5.57806 1.03156 -7.71928 -9.95516 0.0 0.0 0.0 22.8268 12.1198 -9.51014 -58.4672 -2.03677 8.35441 22.3997 18.6236 -3.08782 -28.4011 0.0 0.0 -0.0 0.0 -0.0 3.74282 -5.17738 -3.55148 -15.1193 -0.321835 -2.29119 35.4081 4.99889 4.51324 39.1661 -0.0 -0.0 0.0 0.0 0.0 
1647.47 712.431 -1516.09 2.48911 47.4243 -2.95111 1.61128 0.586299 2.35955 1.61427 0.435011 2.39205 1.63286 -0.0080553 2.43125 1.62481 0.375904 2.40204 0.72936 14.8619 -8.80683 2.22166 33.5422 -8.57108 -0.0 0.0 -0.0 -8.18132 24.5117 -8.28111 -17.5076 -10.5191 75.9596 0.763095 -20.7073 0.139418 2.13563 0.0703355 -0.263686 1.60145 14.1473 16.0145 -0.0 0.0 -0.0 13.0292 18.5656 -26.4078 -1.94591 32.7785 -61.1651 1.1996 30.7197 -0.329532 43.8485 0.564426 5.43817 1.03201 -3.0695 -8.14441 0.0 0.0 0.0 26.9534 6.06005 -9.97571 -56.6366 -1.84796 8.14458 24.0028 20.6564 -3.31089 -28.4361 0.0 0.0 -0.0 0.0 -0.0 1.00034 -6.10201 -4.08186 -11.9761 -0.30495 -1.80929 34.2348 5.03032 4.39938 38.2886 -0.0 -0.0 0.0 0.0 0.0 
1633.34 707.822 -1521.77 1.9406 48.7969 -1.97112 1.92123 0.381017 2.16787 1.92381 0.242332 2.18771 1.93309 -0.148905 2.19604 1.92642 0.199702 2.19201 -1.11805 14.8759 -8.3321 0.0469004 33.3384 -7.40298 -0.0 0.0 -0.0 -7.69497 24.5064 -7.60124 -19.2476 -11.6402 74.8659 0.725845 -19.7767 0.12653 2.90338 0.0932102 -0.359086 1.61187 12.3916 15.4829 -0.0 0.0 -0.0 12.8761 17.9515 -26.0869 -1.82344 32.2294 -60.9242 1.25178 31.8014 -0.356607 44.7186 0.617172 5.53621 1.59702 -2.13437 -11.5797 0.0 0.0 0.0 28.99 1.37949 -10.1156 -52.6681 -1.46239 7.66991 21.7303 25.4482 -3.10226 -29.0073 0.0 0.0 -0.0 0.0 -0.0 -0.254133 -1.99487 -4.10318 -12.2521 -0.30749 -1.85155 34.3212 4.04316 4.39436 37.01 -0.0 -0.0 0.0 0.0 0.0 
1614.63 702.778 -1522.44 0.424951 48.5959 -0.68422 2.09496 0.369199 1.93198 2.097 0.245538 1.95155 2.1053 -0.0980033 1.96449 2.09998 0.21342 1.95532 0.321337 15.5854 -7.55074 1.67542 33.8585 -6.9665 -0.0 0.0 -0.0 -8.73415 25.0387 -8.8591 -20.7343 -12.7174 77.0683 0.880596 -23.5676 0.18371 4.31766 0.13199 -0.535577 1.48527 12.1506 14.5667 -0.0 0.0 -0.0 13.0143 17.8928 -26.4116 -2.21878 32.5812 -59.6697 1.29594 32.6978 -0.380175 43.5124 0.54445 5.40008 1.46726 -2.50746 -10.8479 0.0 0.0 0.0 32.0459 -1.71125 -12.1222 -43.6252 -0.713359 6.49817 21.7302 23.6655 -3.07193 -28.9162 0.0 0.0 -0.0 0.0 -0.0 -0.0576992 -5.43423 -3.39642 -12.0054 -0.305229 -1.81378 36.6978 5.63576 4.64511 39.345 -0.0 -0.0 0.0 0.0 0.0 
1601.01 698.416 -1529.37 -0.176275 47.9386 -0.14615 2.25754 0.466556 1.86983 2.25942 0.34665 1.89572 2.2708 0.0169135 1.92707 2.26576 0.32099 1.90023 0.247546 14.7136 -7.42764 1.4647 32.2176 -6.84414 -0.0 0.0 -0.0 -8.75804 24.6261 -9.05141 -22.1289 -13.5454 77.181 0.935934 -24.8737 0.206414 5.32856 0.157033 -0.662282 1.78884 12.125 16.5608 -0.0 0.0 -0.0 13.0336 17.3162 -26.4869 -1.40423 32.1076 -59.701 1.34791 33.7299 -0.408644 45.2543 0.65039 5.59618 1.45451 -2.49786 -10.7579 0.0 0.0 0.0 30.3924 -7.03229 -10.7754 -42.7588 -0.651547 6.38011 18.1434 25.0939 -2.62334 -26.1442 0.0 0.0 -0.0 0.0 -0.0 -1.14732 -5.85876 -3.41856 -10.7685 -0.291437 -1.62448 35.0091 6.81449 4.50337 38.5539 -0.0 -0.0 0.0 0.0 0.0 
1574.73 698.695 -1533.27 -0.723324 48.3203 -0.125184 2.32458 0.137902 1.99219 2.32679 0.0108802 1.99693 2.32685 -0.329503 1.9696 2.32143 -0.0143712 1.99691 0.792611 13.3829 -6.39373 1.7925 28.971 -5.90638 -0.0 0.0 -0.0 -7.55293 24.386 -7.44423 -25.1505 -12.9773 75.9653 0.886986 -23.7198 0.186273 6.69215 0.187261 -0.833843 1.63827 9.34794 14.5818 -0.0 0.0 -0.0 12.2307 15.4888 -24.7088 -1.03538 31.3786 -62.3125 1.48858 36.4026 -0.489481 43.3527 0.535037 5.38194 1.71883 1.25647 -11.0543 0.0 0.0 0.0 25.8534 -15.4011 -9.10711 -33.8995 -0.124937 5.12583 14.6808 27.3034 -2.17851 -23.7988 0.0 0.0 -0.0 0.0 -0.0 -2.72077 -4.70087 -1.72195 -10.8442 -0.292399 -1.63607 36.7611 9.5163 4.72341 38.539 -0.0 -0.0 0.0 0.0 0.0 
1553.98 693.259 -1538.39 -0.980851 48.2965 0.570618 2.34757 -0.105723 2.02814 2.34983 -0.234538 2.01731 2.34112 -0.574461 1.94799 2.33592 -0.25967 2.01423 1.00253 12.415 -5.87507 1.86296 26.8157 -5.43111 -0.0 0.0 -0.0 -6.48102 23.6898 -6.16808 -27.2977 -12.5132 75.1315 0.86306 -23.1482 0.176757 7.68678 0.206729 -0.959403 1.45868 7.3853 12.6624 -0.0 0.0 -0.0 11.9181 14.4697 -24.0279 -0.7521 30.7346 -63.1002 1.60954 38.5631 -0.563102 42.4489 0.482731 5.27883 1.92467 3.97226 -11.3487 0.0 0.0 0.0 25.1505 -24.7894 -9.91787 -23.7238 0.232872 3.60723 12.6862 28.7197 -1.91282 -22.5987 0.0 0.0 -0.0 0.0 -0.0 -3.95078 -4.06223 -0.802486 -10.8938 -0.293021 -1.64365 38.0669 11.1021 4.88127 38.4164 -0.0 -0.0 0.0 0.0 0.0 
1536.44 694.435 -1544.6 -0.607507 48.1202 0.399572 2.57847 0.152589 1.933 2.58055 0.0293013 1.93879 2.58111 -0.292922 1.91676 2.57598 0.0134121 1.93896 0.943461 11.3734 -5.08357 1.62461 24.3309 -4.59608 -0.0 0.0 -0.0 -5.64137 23.3834 -5.0795 -28.5181 -13.9158 73.6634 0.859474 -23.0621 0.17535 8.30189 0.217677 -1.03721 1.01759 6.48996 9.39029 -0.0 0.0 -0.0 11.669 11.4374 -23.5241 -1.21199 28.9687 -64.9071 1.64244 39.1293 -0.58374 41.0885 0.407084 5.1221 1.4332 3.99703 -7.98135 0.0 0.0 0.0 20.6624 -31.5695 -10.8956 -19.9962 0.295685 3.03878 17.894 28.9687 -2.6532 -17.3647 0.0 0.0 -0.0 0.0 -0.0 -4.7986 -1.70422 0.105602 -11.6134 -0.301301 -1.75375 35.0894 14.278 4.68303 37.4461 -0.0 -0.0 0.0 0.0 0.0 
